<svg xmlns="http://www.w3.org/2000/svg" xml:space="preserve" viewBox="0 0 48 48" id="horse">
  <symbol id="New_Symbol_14" viewBox="-6.5 -6.5 13 13">
    <path fill="#FFD4C3" stroke="#504B46" stroke-linecap="round" stroke-linejoin="round" stroke-miterlimit="10" d="M0-6c2.2 0 4.1 1.5 4.7 3.5C6.3-2.5 6.4 0 5 0v1c0 2.8-2.2 5-5 5s-5-2.2-5-5V0c-1.4 0-1.3-2.5.2-2.5C-4.1-4.5-2.2-6 0-6z" style="fill:#ffd4c3;stroke:#504b46;stroke-linecap:round;stroke-linejoin:round;stroke-miterlimit:10"></path>
    <circle cx="-1.6" cy="-.1" r=".1" style="fill:#ffc258"></circle>
    <path d="M-1.6.5c-.3 0-.6-.3-.6-.6s.2-.7.6-.7c.3 0 .6.3.6.7s-.3.6-.6.6z" style="fill:#4f4b45"></path>
    <circle cx="1.6" cy="-.1" r=".1" style="fill:#ffc258"></circle>
    <path d="M1.6.5C1.3.5 1 .2 1-.1s.3-.6.6-.6.6.3.6.6-.2.6-.6.6z" style="fill:#4f4b45"></path>
    <circle cx="-3" cy="-1.5" r=".5" style="fill:#fabfa5"></circle>
    <circle cx="3" cy="-1.5" r=".5" style="fill:#fabfa5"></circle>
    <path fill="none" stroke="#504B46" stroke-linecap="round" stroke-linejoin="round" stroke-miterlimit="10" d="M-1.2-3c.8-.5 1.7-.5 2.5 0" style="fill:none;stroke:#504b46;stroke-linecap:round;stroke-linejoin:round;stroke-miterlimit:10"></path>
  </symbol>
  <g id="Icons">
    <g id="XMLID_1875_">
      <ellipse id="XMLID_2895_" cx="24" cy="44.9" fill="#45413C" opacity=".15" rx="12.5" ry="1.5" style="opacity:.15;fill:#45413c"></ellipse>
      <g id="XMLID_2073_">
        <path id="XMLID_2881_" d="M22.3 28.2c1.2 6.7 2.6 11.3 6.9 16 .8.9 2.2 1 3.1.2 6.6-5.5 10.4-13.6 10.3-22.2L30.8 13c-1.7-1.3-3.5-2.5-5.5-3.4-3.3-1.8-7.3-1.8-10.6 0-2.5 1.3-4.5 3.5-5.6 6.1L4.7 26.5c-.6 1.5-.6 3.1.1 4.6v.1c1 2.2 3.1 3.5 5.5 3.5h.1c2.5-.1 4.9-1.1 6.5-3l2.8-3.2 2.7-.3c1.8-.7 2.8-1.5 3.8-2.7 1-1.2 1.9-3 2.1-5" style="fill:#debb7e"></path>
        <path id="XMLID_2880_" fill="#FFF" stroke="#45413C" stroke-linecap="round" stroke-linejoin="round" stroke-miterlimit="10" d="M11.9 17c2.1-3.7 5.9-4.4 3.2-7.7-.2.1-.3.1-.5.2-2.5 1.3-4.5 3.5-5.6 6.1L4.7 26.5c-.6 1.5-.6 3.1.1 4.6v.1c1 2.2 3.1 3.5 5.5 3.5h.1c1.6 0 3.2-.5 4.6-1.4.1-.5.2-1.1.2-1.7 0-1.4-.7-2.6-1.7-3.6-2.8-2.8-3.6-7.2-1.7-10.7 0-.1.1-.2.1-.3z" style="fill:#fff;stroke:#45413c;stroke-linecap:round;stroke-linejoin:round;stroke-miterlimit:10"></path>
        <path id="XMLID_2879_" d="M22.3 28.2c1.2 6.7 2.6 11.3 6.9 16 .8.9 2.2 1 3.1.2 6.6-5.5 10.4-13.6 10.3-22.2L30.8 13c-1.7-1.3-3.5-2.5-5.5-3.4-3.3-1.8-7.3-1.8-10.6 0-2.5 1.3-4.5 3.5-5.6 6.1L4.7 26.5c-.6 1.5-.6 3.1.1 4.6v.1c1 2.2 3.1 3.5 5.5 3.5h.1c2.5-.1 4.9-1.1 6.5-3l2.8-3.2 2.7-.3c1.8-.7 2.8-1.5 3.8-2.7 1-1.2 1.9-3 2.1-5" style="fill:none;stroke:#45413c;stroke-linecap:round;stroke-linejoin:round;stroke-miterlimit:10"></path>
        <circle id="XMLID_2084_" cx="16.8" cy="18" r="1" fill="#45413C" stroke="#45413C" stroke-linecap="round" stroke-linejoin="round" stroke-miterlimit="10" style="fill:#45413c;stroke:#45413c;stroke-linecap:round;stroke-linejoin:round;stroke-miterlimit:10"></circle>
        <ellipse id="XMLID_2083_" cx="21.5" cy="22.4" fill="#FC9" rx="1.1" ry=".8" style="fill:#fc9"></ellipse>
        <path id="XMLID_2082_" d="M7.6 30.4s-.4-1.1.6-1.6" style="fill:none;stroke:#45413c;stroke-linecap:round;stroke-linejoin:round;stroke-miterlimit:10"></path>
        <path id="XMLID_2081_" fill="#BF8256" d="M42.3 24.8c-1.8 2.9-4.7 4.1-5.9 4.5-.3.1-.5-.1-.5-.4.2-1.3.5-4.9-.4-8-.9-3.1-4.1-5.9-5.5-7-.3-.3-.8-.2-1 .2l-1.2 1.8c-.2.3-.6.2-.6-.1-.2-1-.7-2.8-2-4.1-1.9-2-5.7-3.6-5.7-3.6s-1.1 4.3-5.4 6.4c-2.7 1.4-5.3 1.7-6.8 1.8-.3 0-.5-.4-.3-.6.5-.5 1.2-1.4 1.7-3C9.9 9.2 13.3 4 19.4 4c8.6 0 10 4 10 4s4-.4 8.6 2.1c3.6 2 5.1 4.6 5.6 7.4.6 3.1-.4 5.4-1.3 7.3z" style="fill:#bf8256"></path>
        <g id="XMLID_2079_">
          <path id="XMLID_2080_" fill="#DEA47A" d="M7.2 16.2c.4 0 .9-.1 1.5-.1V16c1.2-3.5 4.6-8.6 10.7-8.6 8.6 0 10 3.9 10 3.9s4-.4 8.6 2.1c3.6 2 5.1 4.6 5.6 7.4.2-1 .2-2.1 0-3.4-.5-2.9-2-5.4-5.6-7.4-4.5-2.4-8.6-2-8.6-2s-1.4-4-10-4c-6.1 0-9.5 5.1-10.7 8.6-.5 1.6-1.2 2.5-1.7 3-.3.2-.1.6.2.6z" style="fill:#dea47a"></path>
        </g>
        <path id="XMLID_2078_" d="M42.3 24.8c-1.8 2.9-4.7 4.1-5.9 4.5-.3.1-.5-.1-.5-.4.2-1.3.5-4.9-.4-8-.9-3.1-4.1-5.9-5.5-7-.3-.3-.8-.2-1 .2l-1.2 1.8c-.2.3-.6.2-.6-.1-.2-1-.7-2.8-2-4.1-1.9-2-5.7-3.6-5.7-3.6s-1.1 4.3-5.4 6.4c-2.7 1.4-5.3 1.7-6.8 1.8-.3 0-.5-.4-.3-.6.5-.5 1.2-1.4 1.7-3C9.9 9.2 13.3 4 19.4 4c8.6 0 10 4 10 4s4-.4 8.6 2.1c3.6 2 5.1 4.6 5.6 7.4.6 3.1-.4 5.4-1.3 7.3z" style="fill:none;stroke:#45413c;stroke-linecap:round;stroke-linejoin:round;stroke-miterlimit:10"></path>
        <path id="XMLID_2077_" d="M22.4 10.2c1.8-1.7 2.2-4.2.8-6.3L22 2.2c-.4-.6-1.3-.8-1.9-.4-.3.2-.5.5-.5.9l-.5 7" style="fill:#debb7e"></path>
        <path id="XMLID_2076_" fill="#F0D5A8" d="M19.4 5c0-.3.4-.7.7-.9.6-.4 1.5-.2 1.9.4l1.1 1.7c.3.5.5 1 .7 1.5.3-1.3.1-2.7-.7-3.9L22 2.2c-.4-.6-1.3-.8-1.9-.4-.3.2-.5.5-.5.9L19.4 5z" style="fill:#f0d5a8"></path>
        <path id="XMLID_2075_" d="M22.4 10.2c1.8-1.7 2.2-4.2.8-6.3L22 2.2c-.4-.6-1.3-.8-1.9-.4-.3.2-.5.5-.5.9l-.5 7" style="fill:none;stroke:#45413c;stroke-linecap:round;stroke-linejoin:round;stroke-miterlimit:10"></path>
        <path id="XMLID_2074_" fill="#BF8256" stroke="#45413C" stroke-linecap="round" stroke-linejoin="round" stroke-miterlimit="10" d="M29.4 8s.5.7.7 3.2" style="fill:#bf8256;stroke:#45413c;stroke-linecap:round;stroke-linejoin:round;stroke-miterlimit:10"></path>
      </g>
    </g>
  </g>
</svg>
